<?xml version="1.0" encoding="utf-8"?>
<!-- Generator: Adobe Illustrator 27.5.0, SVG Export Plug-In . SVG Version: 6.00 Build 0)  -->
<svg version="1.1" xmlns="http://www.w3.org/2000/svg" xmlns:xlink="http://www.w3.org/1999/xlink" x="0px" y="0px"
	 viewBox="0 0 750 500" style="enable-background:new 0 0 750 500;" xml:space="preserve">
<g id="BACKGROUND_1">
	<g>
		<g>
			<defs>
				<rect id="SVGID_1_" x="-564" y="-0.674" width="500" height="500"/>
			</defs>
			<clipPath id="SVGID_00000031187447830686536950000006251835553882790550_">
				<use xlink:href="#SVGID_1_"  style="overflow:visible;"/>
			</clipPath>
			<g style="clip-path:url(#SVGID_00000031187447830686536950000006251835553882790550_);">
				<g>
					<g>
						<path style="fill:#A8C9FF;" d="M60.47,102.447c-3.393-0.765-7.01-0.771-10.611,0.148
							c-11.697,2.984-18.939,14.532-16.744,26.232c-4.991-1.311-10.374-1.414-15.729-0.048
							c-13.147,3.354-22.223,14.542-23.512,27.301c-3.522-2.547-8.106-3.572-12.647-2.413c-4.094,1.045-7.367,3.665-9.344,7.045
							c-9.377-8.502-22.701-12.293-35.884-8.93c-18.971,4.84-31.11,22.819-29.18,41.727c-3.216-1.705-7.043-2.281-10.848-1.31
							c-5.682,1.45-9.778,5.934-11.023,11.276c-6.935-4.148-15.456-5.639-23.905-3.483c-16.822,4.292-26.979,21.408-22.687,38.23
							c0.079,0.31,0.172,0.614,0.259,0.919c-2.157-0.088-4.362,0.128-6.561,0.689c-8.534,2.177-14.693,8.914-16.551,16.941
							c-7.11-4.628-16.057-6.384-24.924-4.122c-13.204,3.369-22.299,14.64-23.525,27.468c-3.658-1.967-8.025-2.638-12.367-1.53
							c-7.525,1.92-12.602,8.539-12.909,15.919c-1.01,0.048-2.03,0.198-3.048,0.457c-7.837,2-12.658,9.766-11.124,17.605
							c-5.32-1.624-11.139-1.857-16.922-0.381c-16.822,4.292-26.979,21.408-22.687,38.23c0.053,0.208,0.117,0.411,0.174,0.617
							c-1.438-0.059-2.909,0.081-4.375,0.455c-3.26,0.832-5.988,2.671-7.968,5.089c-5.483-5.144-13.391-7.47-21.216-5.474
							c-12.181,3.108-19.537,15.502-16.429,27.684c1.552,6.082,5.43,10.939,10.429,13.912l0.276-0.07L-327.035,487h2.447
							L60.47,388.756V102.447z"/>
						<path style="fill:#BDD6FF;" d="M50.435,210.293c-3.804-11.49-17.972-17.136-31.645-12.609
							c-7.58,2.509-13.406,7.622-16.454,13.635c-10.017-20.117-36.821-29.41-62.769-20.82
							c-22.879,7.574-38.001,26.701-38.542,46.283c-9.427-6.826-23.097-8.97-36.478-4.54c-16.704,5.53-27.702,19.537-27.992,33.837
							c-7.331-3.787-16.818-4.611-26.117-1.533c-16.266,5.385-25.848,20.689-21.708,34.404c-7.322-1.715-15.535-1.469-23.646,1.217
							c-20.309,6.723-32.206,25.976-26.643,43.054c-22.226,8.778-34.888,30.539-28.48,49.897c1.374,4.149,3.526,7.857,6.273,11.072
							c-11.93,7.982-19.399,20.442-18.941,33.694c0.024,0.689,0.01,1.374,0.077,2.067c0.295,3.035,1.009,5.929,2.068,8.662
							L61.47,328.764V210.724c-3.646,1.46-7.032,3.268-10.118,5.358C51.342,214.142,51.065,212.197,50.435,210.293z"/>
						<path style="fill:#D9E7FF;" d="M58.471,253.968c-6.909-10.953-19.098-18.24-33.005-18.24
							c-11.449,0-21.746,4.931-28.884,12.784c-6.924-5.746-15.852-9.146-25.554-8.983c-21.548,0.362-38.723,18.124-38.361,39.672
							c0.046,2.752,0.38,5.432,0.966,8.014c-4.856-4.867-11.601-7.836-19.018-7.711c-13.167,0.221-23.905,10.102-25.579,22.776
							c-1.649-0.455-3.379-0.718-5.173-0.718c-7.213,0-13.494,3.94-16.845,9.777c-7.158-8.443-17.835-13.808-29.771-13.808
							c-21.551,0-39.022,17.471-39.022,39.022c0,1.557,0.102,3.089,0.279,4.599c-4.807-5.395-11.805-8.796-19.599-8.796
							c-12.251,0-22.54,8.393-25.435,19.742c-7.08-7.209-16.934-11.684-27.836-11.684c-21.551,0-39.022,17.471-39.022,39.022
							c0,1.156,0.06,2.298,0.159,3.428c-3.13-2.158-6.919-3.428-11.009-3.428c-9.952,0-18.143,7.487-19.279,17.134
							c-4.203-2.859-9.277-4.531-14.743-4.531c-14.497,0-26.249,11.752-26.249,26.249c0,1.21,0.089,2.398,0.247,3.564
							c-7.121-9.461-18.443-15.58-31.196-15.58c-21.551,0-39.022,17.471-39.022,39.022c0,8.155,2.507,15.72,6.786,21.978H58.471
							V253.968z M-194.929,360.546c0.044-0.598,0.075-1.2,0.078-1.809c0.319,0.461,0.659,0.906,0.997,1.352L-194.929,360.546z"/>
						<path style="fill:#FFFFFF;" d="M60.896,289.927c-1.149-0.127-2.315-0.198-3.498-0.198c-16.834,0-30.576,13.232-31.395,29.863
							c-3.232-1.762-6.938-2.764-10.879-2.764c-12.072,0-21.944,9.399-22.709,21.278c-4.512-2.504-9.702-3.935-15.229-3.935
							c-13.568,0-25.129,8.597-29.532,20.64c-2.784-3.338-6.972-5.465-11.658-5.465c-4.225,0-8.044,1.73-10.795,4.516
							c-6.984-10.557-18.957-17.524-32.562-17.524c-19.578,0-35.786,14.42-38.59,33.218c-2.694-2.447-6.261-3.951-10.188-3.951
							c-5.864,0-10.942,3.332-13.468,8.201c-5.694-5.733-13.583-9.285-22.302-9.285c-17.361,0-31.434,14.074-31.434,31.434
							c0,0.32,0.015,0.637,0.024,0.955c-2.068-0.618-4.258-0.955-6.528-0.955c-8.807,0-16.441,5.005-20.226,12.323
							c-5.745-6.242-13.98-10.155-23.132-10.155c-13.627,0-25.226,8.673-29.586,20.799c-3.058-2.81-7.124-4.54-11.604-4.54
							c-7.766,0-14.322,5.158-16.444,12.234c-0.99-0.203-2.016-0.31-3.067-0.31c-8.088,0-14.68,6.333-15.131,14.308
							c-4.753-2.889-10.334-4.553-16.303-4.553c-17.361,0-31.434,14.074-31.434,31.434c0,0.215,0.012,0.427,0.016,0.641
							c-1.379-0.412-2.838-0.641-4.352-0.641c-3.364,0-6.462,1.108-8.978,2.961c-4.041-6.34-11.129-10.549-19.204-10.549
							c-12.572,0-22.763,10.191-22.763,22.763c0,6.276,2.557,11.942,6.666,16.058H60.896V289.927z"/>
					</g>
					<g>
						
							<linearGradient id="SVGID_00000051354969269789794650000011953116965314424492_" gradientUnits="userSpaceOnUse" x1="-61.4465" y1="30.2133" x2="-61.4465" y2="91.263">
							<stop  offset="0" style="stop-color:#FFFFFF"/>
							<stop  offset="0.84" style="stop-color:#ACD0FF"/>
						</linearGradient>
						<path style="fill:url(#SVGID_00000051354969269789794650000011953116965314424492_);" d="M24.162,66.843
							c-1.291,0-2.544,0.142-3.741,0.409c-1.723-5.783-7.679-10.048-14.762-10.048c-3.614,0-6.934,1.111-9.549,2.967
							c-1.6-5.94-7.641-10.357-14.849-10.357c-3.225,0-6.216,0.885-8.681,2.394c0.008-0.181,0.014-0.364,0.014-0.547
							c0-7.453-6.834-13.495-15.265-13.495c-2.621,0-5.088,0.584-7.243,1.613c-1.903-5.536-7.722-9.566-14.607-9.566
							c-5.721,0-10.699,2.786-13.313,6.903c-2.614-4.116-7.59-6.903-13.311-6.903c-8.431,0-15.265,6.042-15.265,13.495
							c0,0.159,0.004,0.317,0.01,0.475c-1.282-0.309-2.631-0.475-4.024-0.475c-7.786,0-14.21,5.154-15.147,11.813
							c-2.391-1.374-5.244-2.173-8.309-2.173c-8.431,0-15.265,6.042-15.265,13.495c0,1.362,0.229,2.676,0.653,3.915
							c-7.757,0.64-13.83,6.41-13.83,13.435c0,2.592,0.828,5.013,2.261,7.069h26.624H6.5h26.624
							c3.82-2.453,6.304-6.432,6.304-10.925C39.427,72.885,32.593,66.843,24.162,66.843z"/>
					</g>
				</g>
			</g>
		</g>
	</g>
</g>
<g id="BACKGROUND_2">
	<g>
		<rect style="fill:#ACD0FF;" width="750" height="500"/>
		<g>
			<g>
				<g>
					<path style="fill:#A8C9FF;" d="M508.284,311.5c4.109-4.116,6.666-9.782,6.666-16.058c0-12.572-10.191-22.763-22.763-22.763
						c-8.076,0-15.163,4.209-19.204,10.549c-2.516-1.853-5.614-2.961-8.978-2.961c-1.514,0-2.973,0.229-4.352,0.641
						c0.004-0.214,0.016-0.426,0.016-0.641c0-17.361-14.074-31.434-31.434-31.434c-5.969,0-11.549,1.664-16.303,4.553
						c-0.452-7.975-7.043-14.308-15.131-14.308c-1.051,0-2.076,0.107-3.067,0.31c-2.123-7.075-8.678-12.234-16.444-12.234
						c-4.48,0-8.547,1.73-11.604,4.54c-4.36-12.126-15.958-20.799-29.585-20.799c-9.152,0-17.387,3.914-23.132,10.156
						c-3.785-7.318-11.418-12.323-20.226-12.323c-2.27,0-4.46,0.337-6.528,0.955c0.01-0.318,0.024-0.635,0.024-0.955
						c0-17.361-14.074-31.434-31.434-31.434c-8.719,0-16.607,3.551-22.302,9.285c-2.527-4.869-7.604-8.201-13.468-8.201
						c-3.927,0-7.493,1.504-10.188,3.951c-2.804-18.798-19.011-33.218-38.59-33.218c-13.605,0-25.578,6.967-32.562,17.523
						c-2.751-2.786-6.57-4.516-10.795-4.516c-4.687,0-8.875,2.127-11.658,5.465c-4.403-12.044-15.963-20.64-29.532-20.64
						c-5.526,0-10.716,1.431-15.229,3.935c-0.766-11.879-10.637-21.278-22.709-21.278c-3.941,0-7.647,1.002-10.879,2.764
						C36.073,115.732,22.331,102.5,5.498,102.5c-1.183,0-2.349,0.071-3.498,0.198V201.5v110v98h506v-98H508.284z"/>
					<path style="fill:#A8C9FF;" d="M750,102.447c-3.393-0.765-7.01-0.771-10.611,0.148c-11.697,2.984-18.939,14.532-16.744,26.232
						c-4.991-1.311-10.374-1.414-15.729-0.048c-13.147,3.354-22.223,14.542-23.512,27.301c-3.522-2.547-8.106-3.572-12.647-2.413
						c-4.094,1.045-7.367,3.665-9.344,7.045c-9.377-8.502-22.701-12.293-35.884-8.93c-18.971,4.84-31.11,22.819-29.18,41.727
						c-3.216-1.705-7.043-2.281-10.848-1.31c-5.682,1.45-9.779,5.934-11.023,11.276c-6.935-4.148-15.456-5.639-23.905-3.483
						c-16.822,4.292-26.979,21.408-22.687,38.23c0.079,0.31,0.172,0.614,0.259,0.919c-2.157-0.088-4.362,0.128-6.561,0.689
						c-8.534,2.177-14.693,8.914-16.551,16.941c-7.11-4.628-16.057-6.384-24.924-4.122c-13.204,3.369-22.298,14.64-23.525,27.468
						c-3.658-1.967-8.025-2.638-12.367-1.53c-7.525,1.92-12.602,8.539-12.909,15.919c-1.01,0.048-2.03,0.198-3.048,0.457
						c-7.837,2-12.658,9.766-11.124,17.605c-5.32-1.624-11.139-1.857-16.922-0.381c-16.822,4.292-26.979,21.408-22.687,38.23
						c0.053,0.208,0.117,0.411,0.174,0.617c-1.439-0.059-2.909,0.081-4.375,0.455c-3.26,0.832-5.988,2.671-7.968,5.089
						c-5.483-5.144-13.391-7.47-21.216-5.474c-12.181,3.108-19.537,15.502-16.429,27.684c1.552,6.082,5.43,10.939,10.429,13.912
						l0.276-0.07L362.494,487h2.447L750,388.756V102.447z"/>
					<path style="fill:#BDD6FF;" d="M739.964,210.293c-3.804-11.49-17.972-17.136-31.646-12.609
						c-7.58,2.509-13.406,7.622-16.454,13.635c-10.017-20.117-36.821-29.41-62.769-20.82c-22.879,7.574-38.001,26.701-38.542,46.283
						c-9.427-6.826-23.097-8.97-36.478-4.54c-16.704,5.53-27.702,19.537-27.992,33.837c-7.331-3.787-16.818-4.611-26.117-1.533
						c-16.266,5.385-25.848,20.689-21.708,34.404c-7.323-1.715-15.535-1.469-23.646,1.217
						c-20.309,6.723-32.206,25.976-26.643,43.054c-22.226,8.778-34.888,30.539-28.48,49.897c1.374,4.149,3.526,7.857,6.272,11.072
						c-11.93,7.982-19.399,20.442-18.941,33.694c0.024,0.689,0.01,1.374,0.077,2.067c0.295,3.035,1.009,5.929,2.068,8.662
						L751,328.764V210.724c-3.646,1.46-7.032,3.268-10.118,5.358C740.872,214.142,740.595,212.197,739.964,210.293z"/>
					<path style="fill:#B5D1FF;" d="M443.948,478.476c0.13-0.746,0.171-1.491,0.253-2.236c1.583-14.339-5.499-28.469-17.787-38.106
						c3.243-3.264,5.882-7.109,7.712-11.498c8.539-20.475-3.415-45.121-26.808-56.465c7.434-18.07-3.895-39.933-25.376-48.891
						c-8.58-3.578-17.469-4.518-25.553-3.258c5.616-14.54-3.526-31.928-20.731-39.103c-9.836-4.102-20.196-3.985-28.459-0.477
						c0.857-15.537-9.926-31.634-27.595-39.002c-14.153-5.902-29.159-4.696-39.946,1.936c1.018-21.288-13.821-43.278-38.02-53.37
						c-27.446-11.445-57.286-3.561-69.802,17.443c-2.815-6.773-8.715-12.797-16.733-16.141
						c-14.463-6.031-30.296-1.068-35.364,11.086c-0.84,2.014-1.3,4.101-1.47,6.206c-4.07-3.229-8.706-6.006-13.844-8.148
						c-25.419-10.6-53.247-1.877-62.155,19.484c-0.67,1.608-1.201,3.243-1.623,4.894v18.23c0.654,2.691,1.578,5.348,2.767,7.933
						c-0.92-0.341-1.843-0.648-2.767-0.939v56.021l440.348,183.63C442.368,484.826,443.38,481.744,443.948,478.476z"/>
					<path style="fill:#C4DAFF;" d="M506.344,412.704c4.109-4.117,6.666-9.782,6.666-16.058c0-12.572-10.191-22.763-22.763-22.763
						c-8.076,0-15.163,4.209-19.204,10.549c-2.516-1.853-5.614-2.961-8.979-2.961c-1.514,0-2.973,0.229-4.352,0.641
						c0.004-0.214,0.016-0.426,0.016-0.641c0-17.361-14.074-31.434-31.434-31.434c-5.969,0-11.549,1.664-16.303,4.553
						c-0.452-7.975-7.043-14.308-15.131-14.308c-1.051,0-2.076,0.107-3.067,0.31c-2.123-7.075-8.678-12.234-16.444-12.234
						c-4.48,0-8.547,1.73-11.604,4.54c-4.36-12.126-15.958-20.799-29.586-20.799c-9.152,0-17.387,3.914-23.132,10.156
						c-3.785-7.318-11.418-12.323-20.226-12.323c-2.27,0-4.46,0.337-6.528,0.955c0.01-0.318,0.024-0.635,0.024-0.955
						c0-17.361-14.074-31.434-31.434-31.434c-8.719,0-16.607,3.551-22.302,9.285c-2.527-4.869-7.604-8.201-13.468-8.201
						c-3.927,0-7.493,1.504-10.188,3.951c-2.804-18.798-19.011-33.218-38.59-33.218c-13.605,0-25.578,6.967-32.562,17.523
						c-2.751-2.786-6.57-4.516-10.795-4.516c-4.687,0-8.875,2.127-11.658,5.465c-4.403-12.044-15.963-20.64-29.532-20.64
						c-5.526,0-10.716,1.431-15.229,3.935c-0.766-11.879-10.637-21.278-22.709-21.278c-3.941,0-7.647,1.002-10.879,2.764
						c-0.819-16.63-14.561-29.863-31.395-29.863c-1.183,0-2.349,0.071-3.498,0.198v98.802v110v86.606h506v-86.606H506.344z"/>
					<path style="fill:#D9E7FF;" d="M748.001,253.968c-6.909-10.953-19.098-18.24-33.005-18.24
						c-11.449,0-21.746,4.931-28.885,12.784c-6.924-5.746-15.852-9.146-25.554-8.983c-21.548,0.362-38.723,18.124-38.361,39.672
						c0.046,2.752,0.38,5.432,0.966,8.014c-4.856-4.867-11.601-7.836-19.018-7.711c-13.167,0.221-23.905,10.102-25.579,22.776
						c-1.649-0.455-3.379-0.718-5.173-0.718c-7.213,0-13.494,3.94-16.845,9.777c-7.158-8.443-17.835-13.808-29.771-13.808
						c-21.551,0-39.022,17.471-39.022,39.022c0,1.557,0.102,3.089,0.279,4.599c-4.807-5.395-11.805-8.796-19.599-8.796
						c-12.251,0-22.54,8.393-25.435,19.742c-7.08-7.209-16.934-11.684-27.836-11.684c-21.551,0-39.022,17.471-39.022,39.022
						c0,1.156,0.06,2.298,0.159,3.428c-3.13-2.158-6.919-3.428-11.009-3.428c-9.952,0-18.143,7.487-19.279,17.134
						c-4.203-2.859-9.277-4.531-14.743-4.531c-14.497,0-26.249,11.752-26.249,26.249c0,1.21,0.089,2.398,0.247,3.564
						c-7.121-9.461-18.443-15.58-31.196-15.58c-21.551,0-39.022,17.471-39.022,39.022c0,8.155,2.507,15.72,6.786,21.978h506.165
						V253.968z M494.601,360.546c0.044-0.598,0.075-1.2,0.078-1.809c0.319,0.461,0.659,0.906,0.997,1.352L494.601,360.546z"/>
					<path style="fill:#E3EDFF;" d="M2,500h506.165c4.278-6.259,6.786-13.823,6.786-21.978c0-21.551-17.471-39.022-39.022-39.022
						c-12.753,0-24.075,6.12-31.196,15.58c0.159-1.166,0.247-2.355,0.247-3.564c0-14.497-11.752-26.249-26.249-26.249
						c-5.466,0-10.54,1.672-14.743,4.53c-1.136-9.646-9.327-17.134-19.279-17.134c-4.089,0-7.879,1.27-11.009,3.428
						c0.099-1.13,0.159-2.272,0.159-3.428c0-21.551-17.471-39.022-39.022-39.022c-10.902,0-20.756,4.476-27.836,11.684
						c-2.895-11.349-13.184-19.742-25.435-19.742c-7.795,0-14.792,3.401-19.599,8.796c0.177-1.509,0.279-3.042,0.279-4.599
						c0-21.551-17.471-39.022-39.022-39.022c-11.936,0-22.613,5.365-29.771,13.808c-3.351-5.837-9.632-9.777-16.845-9.777
						c-1.794,0-3.524,0.263-5.173,0.718c-1.674-12.674-12.411-22.554-25.579-22.776c-7.417-0.125-14.162,2.844-19.018,7.711
						c0.586-2.582,0.92-5.262,0.966-8.014c0.362-21.548-16.813-39.31-38.361-39.672c-9.702-0.163-18.63,3.237-25.554,8.983
						c-7.138-7.854-17.436-12.784-28.885-12.784c-13.907,0-26.096,7.287-33.005,18.24V500z M254.324,392.818
						c0.338-0.446,0.678-0.891,0.997-1.352c0.003,0.609,0.034,1.211,0.078,1.809L254.324,392.818z"/>
					<path style="fill:#FFFFFF;" d="M750.426,289.927c-1.149-0.127-2.315-0.198-3.498-0.198c-16.834,0-30.576,13.232-31.395,29.863
						c-3.232-1.762-6.939-2.764-10.879-2.764c-12.072,0-21.944,9.399-22.709,21.278c-4.512-2.504-9.702-3.935-15.229-3.935
						c-13.568,0-25.129,8.597-29.532,20.64c-2.784-3.338-6.971-5.465-11.658-5.465c-4.225,0-8.044,1.73-10.795,4.516
						c-6.984-10.557-18.957-17.524-32.562-17.524c-19.578,0-35.786,14.42-38.59,33.218c-2.694-2.447-6.261-3.951-10.188-3.951
						c-5.864,0-10.942,3.332-13.468,8.201c-5.694-5.733-13.583-9.285-22.302-9.285c-17.361,0-31.434,14.074-31.434,31.434
						c0,0.32,0.015,0.637,0.024,0.955c-2.068-0.618-4.258-0.955-6.528-0.955c-8.807,0-16.441,5.005-20.226,12.323
						c-5.745-6.242-13.98-10.155-23.132-10.155c-13.627,0-25.226,8.673-29.586,20.799c-3.058-2.81-7.124-4.54-11.604-4.54
						c-7.766,0-14.322,5.158-16.444,12.234c-0.991-0.203-2.016-0.31-3.067-0.31c-8.088,0-14.68,6.333-15.131,14.308
						c-4.753-2.889-10.334-4.553-16.303-4.553c-17.361,0-31.434,14.074-31.434,31.434c0,0.215,0.012,0.427,0.016,0.641
						c-1.379-0.412-2.838-0.641-4.352-0.641c-3.364,0-6.462,1.108-8.978,2.961c-4.041-6.34-11.129-10.549-19.204-10.549
						c-12.572,0-22.763,10.191-22.763,22.763c0,6.276,2.557,11.942,6.666,16.058h506.285V289.927z"/>
				</g>
				<g>
					
						<linearGradient id="SVGID_00000104693863018579002980000003894675162275849638_" gradientUnits="userSpaceOnUse" x1="628.0831" y1="30.2133" x2="628.0831" y2="91.263">
						<stop  offset="0" style="stop-color:#FFFFFF"/>
						<stop  offset="0.84" style="stop-color:#ACD0FF"/>
					</linearGradient>
					<path style="fill:url(#SVGID_00000104693863018579002980000003894675162275849638_);" d="M713.692,66.843
						c-1.291,0-2.544,0.142-3.741,0.409c-1.723-5.783-7.679-10.048-14.762-10.048c-3.614,0-6.934,1.111-9.549,2.967
						c-1.6-5.94-7.641-10.357-14.849-10.357c-3.225,0-6.216,0.885-8.681,2.394c0.008-0.181,0.013-0.364,0.013-0.547
						c0-7.453-6.834-13.495-15.265-13.495c-2.621,0-5.088,0.584-7.242,1.613c-1.903-5.536-7.722-9.566-14.607-9.566
						c-5.721,0-10.699,2.786-13.313,6.903c-2.614-4.116-7.591-6.903-13.311-6.903c-8.431,0-15.265,6.042-15.265,13.495
						c0,0.159,0.004,0.317,0.01,0.475c-1.282-0.309-2.631-0.475-4.024-0.475c-7.786,0-14.21,5.154-15.147,11.813
						c-2.391-1.374-5.244-2.173-8.309-2.173c-8.431,0-15.265,6.042-15.265,13.495c0,1.362,0.229,2.676,0.654,3.915
						c-7.758,0.64-13.83,6.41-13.83,13.435c0,2.592,0.828,5.013,2.261,7.069h26.624h139.935h26.624
						c3.82-2.453,6.304-6.432,6.304-10.925C728.957,72.885,722.122,66.843,713.692,66.843z"/>
					
						<linearGradient id="SVGID_00000010300738468405565030000001241140315495699598_" gradientUnits="userSpaceOnUse" x1="392.9518" y1="20.5975" x2="392.9518" y2="58.2535">
						<stop  offset="0" style="stop-color:#FFFFFF"/>
						<stop  offset="0.84" style="stop-color:#ACD0FF"/>
					</linearGradient>
					<path style="fill:url(#SVGID_00000010300738468405565030000001241140315495699598_);" d="M445.756,43.191
						c-0.796,0-1.569,0.088-2.307,0.252c-1.063-3.567-4.736-6.198-9.105-6.198c-2.229,0-4.277,0.685-5.89,1.83
						c-0.987-3.664-4.713-6.388-9.159-6.388c-1.989,0-3.834,0.546-5.354,1.477c0.005-0.112,0.008-0.224,0.008-0.337
						c0-4.597-4.215-8.324-9.415-8.324c-1.617,0-3.138,0.36-4.467,0.995c-1.174-3.415-4.763-5.9-9.01-5.9
						c-3.529,0-6.599,1.719-8.212,4.258c-1.612-2.539-4.682-4.258-8.21-4.258c-5.2,0-9.415,3.727-9.415,8.324
						c0,0.098,0.003,0.196,0.006,0.293c-0.791-0.191-1.623-0.293-2.482-0.293c-4.803,0-8.765,3.179-9.343,7.286
						c-1.475-0.848-3.235-1.341-5.125-1.341c-5.2,0-9.416,3.727-9.416,8.324c0,0.84,0.141,1.651,0.403,2.415
						c-4.785,0.395-8.53,3.954-8.53,8.287c0,1.599,0.511,3.092,1.395,4.36h16.422h86.313h16.422
						c2.356-1.513,3.888-3.967,3.888-6.738C455.172,46.918,450.956,43.191,445.756,43.191z"/>
					
						<linearGradient id="SVGID_00000013170349429550241410000001679345541393011072_" gradientUnits="userSpaceOnUse" x1="442.593" y1="108.4572" x2="442.593" y2="199.332">
						<stop  offset="0" style="stop-color:#FFFFFF"/>
						<stop  offset="0.84" style="stop-color:#ACD0FF"/>
					</linearGradient>
					<path style="fill:url(#SVGID_00000013170349429550241410000001679345541393011072_);" d="M566.672,194.577
						c-0.077-0.364-0.191-0.71-0.287-1.065c-1.86-6.819-7.348-11.901-14.245-13.952c0.796-2.099,1.234-4.347,1.234-6.69
						c0-10.928-9.403-19.866-21.299-20.589c-0.043-9.625-8.691-17.416-19.357-17.416c-4.26,0-8.186,1.257-11.383,3.363
						c-0.189-7.675-7.123-13.847-15.666-13.847c-4.884,0-9.245,2.017-12.122,5.179c-2.378-7.226-9.779-12.5-18.551-12.5
						c-7.028,0-13.162,3.393-16.555,8.454c-3.325-9.871-13.48-17.056-25.496-17.056c-13.628,0-24.859,9.242-26.448,21.164
						c-2.385-2.546-5.944-4.166-9.925-4.166c-7.181,0-13.003,5.258-13.003,11.745c0,1.075,0.173,2.111,0.473,3.1
						c-2.291-0.697-4.742-1.08-7.293-1.08c-12.622,0-22.854,9.242-22.854,20.642c0,5.356,2.259,10.234,5.962,13.903
						c-11.787,0.509-21.23,9.083-21.72,19.747c-0.013,0.289-0.024,0.578-0.024,0.869c0,1.707,0.234,3.364,0.666,4.95h248.271
						C567.124,197.763,567.008,196.171,566.672,194.577z"/>
					
						<linearGradient id="SVGID_00000143606137910646961820000013736840821585516468_" gradientUnits="userSpaceOnUse" x1="118.3781" y1="5.668" x2="118.3781" y2="73.183">
						<stop  offset="0" style="stop-color:#FFFFFF"/>
						<stop  offset="0.84" style="stop-color:#ACD0FF"/>
					</linearGradient>
					<path style="fill:url(#SVGID_00000143606137910646961820000013736840821585516468_);" d="M210.562,69.65
						c-0.057-0.27-0.142-0.527-0.213-0.791c-1.382-5.066-5.459-8.841-10.583-10.366c0.591-1.559,0.917-3.23,0.917-4.97
						c0-8.119-6.986-14.76-15.824-15.296c-0.032-7.151-6.457-12.94-14.381-12.94c-3.165,0-6.082,0.934-8.457,2.499
						c-0.141-5.702-5.292-10.288-11.639-10.288c-3.628,0-6.869,1.499-9.006,3.847c-1.767-5.369-7.265-9.287-13.783-9.287
						c-5.221,0-9.779,2.521-12.299,6.28c-2.47-7.334-10.015-12.671-18.942-12.671c-10.125,0-18.469,6.866-19.649,15.724
						c-1.772-1.891-4.416-3.095-7.374-3.095c-5.335,0-9.66,3.907-9.66,8.726c0,0.799,0.129,1.568,0.351,2.303
						c-1.702-0.517-3.523-0.802-5.418-0.802c-9.377,0-16.979,6.866-16.979,15.336c0,3.979,1.678,7.604,4.429,10.329
						c-8.757,0.378-15.773,6.748-16.137,14.671c-0.01,0.214-0.018,0.429-0.018,0.646c0,1.268,0.174,2.499,0.495,3.678h184.452
						C210.898,72.018,210.812,70.834,210.562,69.65z"/>
					
						<linearGradient id="SVGID_00000183967157735906053170000006091562654970899846_" gradientUnits="userSpaceOnUse" x1="233.6904" y1="83.5274" x2="233.6904" y2="126.1528">
						<stop  offset="0" style="stop-color:#FFFFFF"/>
						<stop  offset="0.84" style="stop-color:#ACD0FF"/>
					</linearGradient>
					<path style="fill:url(#SVGID_00000183967157735906053170000006091562654970899846_);" d="M291.891,123.922
						c-0.036-0.171-0.089-0.333-0.135-0.499c-0.872-3.199-3.447-5.582-6.682-6.544c0.373-0.984,0.579-2.039,0.579-3.138
						c0-5.126-4.411-9.318-9.99-9.657c-0.02-4.515-4.076-8.169-9.08-8.169c-1.998,0-3.84,0.59-5.339,1.578
						c-0.089-3.6-3.341-6.495-7.348-6.495c-2.291,0-4.337,0.946-5.686,2.429c-1.115-3.389-4.587-5.863-8.702-5.863
						c-3.296,0-6.174,1.592-7.765,3.965c-1.559-4.63-6.323-8-11.959-8c-6.392,0-11.66,4.335-12.406,9.927
						c-1.119-1.194-2.788-1.954-4.655-1.954c-3.368,0-6.099,2.466-6.099,5.509c0,0.504,0.081,0.99,0.222,1.454
						c-1.075-0.327-2.224-0.507-3.421-0.507c-5.92,0-10.72,4.335-10.72,9.682c0,2.512,1.059,4.8,2.796,6.521
						c-5.529,0.239-9.958,4.26-10.188,9.262c-0.006,0.135-0.011,0.271-0.011,0.408c0,0.801,0.11,1.578,0.313,2.322h116.453
						C292.102,125.417,292.048,124.67,291.891,123.922z"/>
				</g>
			</g>
			<g>
				
					<linearGradient id="SVGID_00000067224555717186224800000015477742419213509308_" gradientUnits="userSpaceOnUse" x1="353.1131" y1="-573.6106" x2="353.1131" y2="-189.1938" gradientTransform="matrix(-1 0 0 -1 728.1131 -329.7764)">
					<stop  offset="0" style="stop-color:#FFFFFF;stop-opacity:0"/>
					<stop  offset="1" style="stop-color:#FFFFFF"/>
				</linearGradient>
				<polygon style="fill:url(#SVGID_00000067224555717186224800000015477742419213509308_);" points="153.057,243.834 375,243.834 
					596.943,243.834 485.972,51.625 456.166,0 293.834,0 264.028,51.625 				"/>
				
					<linearGradient id="SVGID_00000152950245551011711570000007761694697353291402_" gradientUnits="userSpaceOnUse" x1="238.0957" y1="-131.3139" x2="238.0957" y2="233.998">
					<stop  offset="0" style="stop-color:#FFFFFF"/>
					<stop  offset="1" style="stop-color:#FFFFFF;stop-opacity:0"/>
				</linearGradient>
				<polygon style="fill:url(#SVGID_00000152950245551011711570000007761694697353291402_);" points="196.978,233.997 307.019,0 
					297.024,0 169.172,233.997 				"/>
				
					<linearGradient id="SVGID_00000138545749788711784680000013578096664319651994_" gradientUnits="userSpaceOnUse" x1="-2.4512" y1="-130.8654" x2="-2.4512" y2="234.4657" gradientTransform="matrix(-0.9998 0.0179 0.0179 0.9998 501.301 -0.9539)">
					<stop  offset="0" style="stop-color:#FFFFFF"/>
					<stop  offset="1" style="stop-color:#FFFFFF;stop-opacity:0"/>
				</linearGradient>
				<polygon style="fill:url(#SVGID_00000138545749788711784680000013578096664319651994_);" points="549.22,232.681 
					577.021,232.184 444.716,0 434.674,0 				"/>
				
					<linearGradient id="SVGID_00000086667877223334752700000006750598663781772973_" gradientUnits="userSpaceOnUse" x1="85.1373" y1="-147.1328" x2="85.1373" y2="218.1771" gradientTransform="matrix(-0.9199 -0.3921 -0.3921 0.9199 517.4067 34.3391)">
					<stop  offset="0" style="stop-color:#FFFFFF"/>
					<stop  offset="1" style="stop-color:#FFFFFF;stop-opacity:0"/>
				</linearGradient>
				<polygon style="fill:url(#SVGID_00000086667877223334752700000006750598663781772973_);" points="382.69,214.083 
					408.27,224.984 386.333,0 374.826,0 				"/>
				
					<linearGradient id="SVGID_00000052065860162017677920000011952169932746155145_" gradientUnits="userSpaceOnUse" x1="34.2027" y1="-137.7299" x2="34.2027" y2="227.5741" gradientTransform="matrix(-0.9867 -0.1626 -0.1626 0.9867 512.6498 9.5862)">
					<stop  offset="0" style="stop-color:#FFFFFF"/>
					<stop  offset="1" style="stop-color:#FFFFFF;stop-opacity:0"/>
				</linearGradient>
				<polygon style="fill:url(#SVGID_00000052065860162017677920000011952169932746155145_);" points="479.413,234.754 
					506.849,239.274 423.078,0 412.851,0 				"/>
				
					<linearGradient id="SVGID_00000095338931943660692270000002451044819178483383_" gradientUnits="userSpaceOnUse" x1="-51.431" y1="-151.8416" x2="-51.431" y2="213.4624" gradientTransform="matrix(0.9867 -0.1626 0.1626 0.9867 325.2809 9.5862)">
					<stop  offset="0" style="stop-color:#FFFFFF"/>
					<stop  offset="1" style="stop-color:#FFFFFF;stop-opacity:0"/>
				</linearGradient>
				<polygon style="fill:url(#SVGID_00000095338931943660692270000002451044819178483383_);" points="271.728,234.754 338.29,0 
					328.064,0 244.293,239.274 				"/>
			</g>
		</g>
	</g>
</g>
<g id="DESIGNED_BY_FREEPIK">
	<g>
		<g id="XMLID_29_">
			<g id="XMLID_48_">
				<path id="XMLID_56_" style="fill:#A5B7C6;" d="M385.604,465.465c-0.433,0.443-0.804,0.932-1.108,1.453l-0.465-0.241
					c-0.067-0.297-0.35-0.502-0.659-0.466c-0.331,0.039-0.567,0.339-0.529,0.67c0.039,0.331,0.339,0.567,0.67,0.528
					c0.065-0.007,0.127-0.025,0.184-0.052l0.451,0.234c-0.251,0.554-0.433,1.139-0.539,1.743l0.747,0.132
					c0.229-1.306,0.85-2.507,1.792-3.473L385.604,465.465z"/>
				<path id="XMLID_55_" style="fill:#A5B7C6;" d="M391.091,463.163c-0.171,0-0.341,0.006-0.509,0.017l-0.074-0.626
					c0.188-0.149,0.296-0.389,0.266-0.645c-0.046-0.393-0.402-0.674-0.795-0.628c-0.394,0.046-0.675,0.402-0.628,0.796
					c0.03,0.254,0.19,0.461,0.404,0.563l0.073,0.624c-0.714,0.116-1.402,0.332-2.06,0.645l0.327,0.685
					c0.935-0.447,1.941-0.674,2.995-0.674c0.497,0,0.993,0.053,1.476,0.158l0.16-0.741
					C392.192,463.222,391.642,463.163,391.091,463.163z"/>
				<path id="XMLID_54_" style="fill:#A5B7C6;" d="M397.694,465.71c0.331-0.04,0.566-0.341,0.525-0.672
					c-0.04-0.331-0.341-0.566-0.672-0.525c-0.31,0.038-0.535,0.304-0.53,0.608l-0.416,0.363c-0.418-0.43-0.89-0.813-1.407-1.14
					l-0.404,0.642c1.135,0.715,2.021,1.727,2.564,2.925l0.69-0.313c-0.251-0.554-0.567-1.071-0.942-1.545l0.402-0.351
					C397.565,465.715,397.628,465.719,397.694,465.71z"/>
				<path id="XMLID_53_" style="fill:#A5B7C6;" d="M390.544,473.371c-0.386,0.023-0.775,0.035-1.157,0.035
					c-0.88,0-1.733-0.061-2.479-0.18c-0.391-0.061-0.846-0.154-1.27-0.292c1.047,1.861,3.069,3.125,5.389,3.125
					c2.855,0,5.263-1.916,5.949-4.503c-0.682,0.449-1.505,0.825-2.458,1.122C393.338,473.047,391.963,473.286,390.544,473.371z"/>
				<path id="XMLID_49_" style="fill:#A5B7C6;" d="M391.091,464.68c-3.352,0-6.079,2.666-6.079,5.943
					c0,0.425,0.046,0.849,0.137,1.261c0.674,0.483,2.706,0.891,5.348,0.731c2.88-0.174,5.297-0.958,6.672-2.159
					c-0.005-0.194-0.02-0.39-0.045-0.581C396.744,466.913,394.15,464.68,391.091,464.68z M388.932,471.194
					c-1.02,0-1.85-0.83-1.85-1.85c0-1.021,0.83-1.85,1.85-1.85c1.02,0,1.85,0.83,1.85,1.85
					C390.782,470.364,389.952,471.194,388.932,471.194z M393.669,470.286c-0.75,0-1.36-0.61-1.36-1.36s0.61-1.36,1.36-1.36
					s1.36,0.61,1.36,1.36S394.419,470.286,393.669,470.286z"/>
			</g>
			<path id="XMLID_46_" style="fill:#A5B7C6;" d="M407.095,466.547c-0.295-0.116-0.806-0.31-1.383-0.238
				c-0.551,0.069-0.844,0.341-0.844,1.007v0.866h2.228v1.717h-2.228v5.455h-1.932v-5.455h-1.339v-1.717h1.339v-0.889
				c0-1.68,0.896-2.782,2.568-2.782c0.643,0,1.157,0.121,1.59,0.308V466.547z"/>
			<path id="XMLID_44_" style="fill:#A5B7C6;" d="M411.797,469.878c-0.177-0.029-0.357-0.046-0.525-0.046
				c-0.896,0-1.51,0.548-1.51,1.613v3.908h-1.933v-7.172h1.873v0.784c0.451-0.673,1.14-0.977,2.021-0.977
				c0.414,0,0.848,0.128,1.095,0.337L411.797,469.878z"/>
			<path id="XMLID_41_" style="fill:#A5B7C6;" d="M419.465,471.757c0,0.222-0.016,0.488-0.037,0.651h-5.085
				c0.207,1.036,0.933,1.487,1.843,1.487c0.622,0,1.295-0.252,1.813-0.689l1.133,1.243c-0.815,0.748-1.851,1.089-3.057,1.089
				c-2.198,0-3.724-1.496-3.724-3.753c0-2.258,1.48-3.797,3.627-3.797C418.043,467.989,419.458,469.522,419.465,471.757z
				 M414.351,471.091h3.175c-0.178-0.918-0.732-1.436-1.561-1.436C415.054,469.654,414.521,470.202,414.351,471.091z"/>
			<path id="XMLID_38_" style="fill:#A5B7C6;" d="M427.119,471.757c0,0.222-0.016,0.488-0.037,0.651h-5.085
				c0.207,1.036,0.933,1.487,1.843,1.487c0.622,0,1.296-0.252,1.813-0.689l1.133,1.243c-0.815,0.748-1.851,1.089-3.058,1.089
				c-2.198,0-3.723-1.496-3.723-3.753c0-2.258,1.48-3.797,3.627-3.797C425.697,467.989,427.111,469.522,427.119,471.757z
				 M422.004,471.091h3.175c-0.178-0.918-0.733-1.436-1.561-1.436C422.708,469.654,422.174,470.202,422.004,471.091z"/>
			<path id="XMLID_35_" style="fill:#A5B7C6;" d="M435.464,471.764c0,2.154-1.495,3.775-3.472,3.775
				c-0.962,0-1.643-0.378-2.109-0.933v3.708h-1.925v-10.133h1.888v0.792c0.467-0.585,1.154-0.984,2.139-0.984
				C433.969,467.989,435.464,469.61,435.464,471.764z M429.787,471.764c0,1.133,0.748,1.977,1.844,1.977
				c1.14,0,1.85-0.881,1.85-1.977c0-1.095-0.71-1.976-1.85-1.976C430.535,469.788,429.787,470.632,429.787,471.764z"/>
			<path id="XMLID_32_" style="fill:#A5B7C6;" d="M438.568,465.835c0,0.696-0.541,1.23-1.236,1.23c-0.696,0-1.229-0.533-1.229-1.23
				c0-0.695,0.532-1.243,1.229-1.243C438.027,464.592,438.568,465.14,438.568,465.835z M438.308,475.353h-1.932v-7.172h1.932
				V475.353z"/>
			<path id="XMLID_30_" style="fill:#A5B7C6;" d="M441.532,470.735l2.702-2.554h2.368l-3.479,3.375l3.501,3.797h-2.376l-2.717-2.901
				v2.901H439.6v-10.658h1.932V470.735z"/>
		</g>
		<g>
			<path style="fill:#A5B7C6;" d="M309.912,475.289v-1.055c-0.527,0.718-1.391,1.23-2.387,1.23c-1.846,0-3.149-1.406-3.149-3.706
				c0-2.256,1.289-3.721,3.149-3.721c0.952,0,1.816,0.469,2.387,1.245v-3.765h1.099v9.771H309.912z M309.912,473.37v-3.208
				c-0.395-0.615-1.245-1.143-2.124-1.143c-1.42,0-2.27,1.172-2.27,2.739c0,1.567,0.85,2.725,2.27,2.725
				C308.667,474.483,309.517,473.985,309.912,473.37z"/>
			<path style="fill:#A5B7C6;" d="M312.432,471.744c0-2.051,1.465-3.706,3.486-3.706c2.139,0,3.398,1.67,3.398,3.794v0.278h-5.727
				c0.088,1.333,1.025,2.446,2.549,2.446c0.806,0,1.626-0.322,2.182-0.894l0.527,0.718c-0.703,0.703-1.655,1.084-2.812,1.084
				C313.94,475.465,312.432,473.956,312.432,471.744z M315.903,468.946c-1.509,0-2.256,1.274-2.315,2.358h4.644
				C318.218,470.25,317.515,468.946,315.903,468.946z"/>
			<path style="fill:#A5B7C6;" d="M320.107,474.352l0.571-0.791c0.469,0.542,1.362,1.011,2.329,1.011c1.084,0,1.67-0.513,1.67-1.216
				c0-1.714-4.38-0.659-4.38-3.281c0-1.099,0.952-2.036,2.636-2.036c1.202,0,2.051,0.454,2.623,1.025l-0.513,0.762
				c-0.424-0.513-1.201-0.893-2.109-0.893c-0.966,0-1.567,0.483-1.567,1.113c0,1.553,4.379,0.527,4.379,3.281
				c0,1.186-0.952,2.139-2.783,2.139C321.806,475.465,320.825,475.113,320.107,474.352z"/>
			<path style="fill:#A5B7C6;" d="M326.977,466.471c0-0.41,0.337-0.747,0.732-0.747c0.41,0,0.747,0.337,0.747,0.747
				c0,0.41-0.337,0.732-0.747,0.732C327.314,467.203,326.977,466.881,326.977,466.471z M327.167,475.289v-7.075h1.099v7.075H327.167
				z"/>
			<path style="fill:#A5B7C6;" d="M330.082,477.105l0.556-0.82c0.586,0.703,1.289,0.967,2.3,0.967c1.172,0,2.27-0.571,2.27-2.124
				v-1.011c-0.513,0.718-1.377,1.26-2.373,1.26c-1.846,0-3.149-1.377-3.149-3.662c0-2.271,1.289-3.677,3.149-3.677
				c0.952,0,1.802,0.469,2.373,1.245v-1.069h1.099v6.87c0,2.344-1.641,3.076-3.369,3.076
				C331.737,478.16,330.916,477.925,330.082,477.105z M335.208,473.253v-3.091c-0.381-0.615-1.23-1.143-2.109-1.143
				c-1.421,0-2.27,1.128-2.27,2.695c0,1.553,0.849,2.695,2.27,2.695C333.978,474.41,334.828,473.868,335.208,473.253z"/>
			<path style="fill:#A5B7C6;" d="M342.913,475.289v-4.629c0-1.245-0.63-1.641-1.582-1.641c-0.864,0-1.685,0.527-2.094,1.099v5.171
				h-1.099v-7.075h1.099v1.025c0.497-0.586,1.464-1.201,2.519-1.201c1.479,0,2.256,0.747,2.256,2.285v4.966H342.913z"/>
			<path style="fill:#A5B7C6;" d="M345.432,471.744c0-2.051,1.465-3.706,3.486-3.706c2.139,0,3.398,1.67,3.398,3.794v0.278h-5.727
				c0.088,1.333,1.025,2.446,2.548,2.446c0.806,0,1.626-0.322,2.183-0.894l0.527,0.718c-0.703,0.703-1.655,1.084-2.813,1.084
				C346.941,475.465,345.432,473.956,345.432,471.744z M348.904,468.946c-1.509,0-2.256,1.274-2.314,2.358h4.643
				C351.218,470.25,350.515,468.946,348.904,468.946z"/>
			<path style="fill:#A5B7C6;" d="M358.85,475.289v-1.055c-0.527,0.718-1.392,1.23-2.388,1.23c-1.845,0-3.149-1.406-3.149-3.706
				c0-2.256,1.289-3.721,3.149-3.721c0.952,0,1.817,0.469,2.388,1.245v-3.765h1.098v9.771H358.85z M358.85,473.37v-3.208
				c-0.396-0.615-1.245-1.143-2.124-1.143c-1.421,0-2.271,1.172-2.271,2.739c0,1.567,0.85,2.725,2.271,2.725
				C357.605,474.483,358.454,473.985,358.85,473.37z"/>
			<path style="fill:#A5B7C6;" d="M365.192,475.289v-9.771h1.099v3.765c0.571-0.776,1.421-1.245,2.388-1.245
				c1.845,0,3.149,1.465,3.149,3.721c0,2.3-1.304,3.706-3.149,3.706c-0.996,0-1.86-0.513-2.388-1.23v1.055H365.192z M368.4,474.483
				c1.436,0,2.285-1.157,2.285-2.725c0-1.567-0.85-2.739-2.285-2.739c-0.864,0-1.728,0.527-2.109,1.143v3.208
				C366.671,473.985,367.536,474.483,368.4,474.483z"/>
			<path style="fill:#A5B7C6;" d="M373.028,477.061c0.161,0.073,0.425,0.117,0.6,0.117c0.483,0,0.806-0.161,1.055-0.747l0.469-1.069
				l-2.959-7.148h1.186l2.358,5.801l2.344-5.801h1.2l-3.544,8.511c-0.425,1.024-1.143,1.421-2.08,1.436
				c-0.234,0-0.6-0.044-0.806-0.103L373.028,477.061z"/>
		</g>
	</g>
</g>
</svg>
